<?xml version="1.0" encoding="UTF-8"?>
<svg width="269px" height="145px" viewBox="0 0 269 145" version="1.1" xmlns="http://www.w3.org/2000/svg" xmlns:xlink="http://www.w3.org/1999/xlink">
    <!-- Generator: Sketch 61.2 (89653) - https://sketch.com -->
    <title>Group 2</title>
    <desc>Created with Sketch.</desc>
    <g id="Page-1" stroke="none" stroke-width="1" fill="none" fill-rule="evenodd">
        <g id="Logo" transform="translate(-122.000000, -165.000000)" fill="#000000">
            <g id="Group-2" transform="translate(122.000000, 165.000000)">
                <path d="M269,0 L269,101 L0,101 L0,0 L269,0 Z M100.87,25 C97.558,25 94.534,25.552 91.798,26.656 C89.062,27.76 86.734,29.404 84.814,31.588 C82.894,33.772 81.406,36.484 80.35,39.724 C79.294,42.964 78.766,46.72 78.766,50.992 C78.766,55.264 79.294,59.02 80.35,62.26 C81.406,65.5 82.894,68.212 84.814,70.396 C86.734,72.58 89.062,74.224 91.798,75.328 C94.534,76.432 97.558,76.984 100.87,76.984 C104.182,76.984 107.206,76.432 109.942,75.328 C112.678,74.224 115.006,72.58 116.926,70.396 C118.846,68.212 120.334,65.5 121.39,62.26 C122.446,59.02 122.974,55.264 122.974,50.992 C122.974,46.72 122.446,42.964 121.39,39.724 C120.334,36.484 118.846,33.772 116.926,31.588 C115.006,29.404 112.678,27.76 109.942,26.656 C107.206,25.552 104.182,25 100.87,25 Z M165.148,25 C162.172,25 159.52,25.372 157.192,26.116 C154.864,26.86 152.896,27.904 151.288,29.248 C149.68,30.592 148.444,32.2 147.58,34.072 C146.716,35.944 146.284,38.008 146.284,40.264 C146.284,44.488 147.52,47.872 149.992,50.416 C152.384258,52.8779355 156.113873,54.4632841 161.180845,55.1720458 L161.692,55.24 L166.66,55.888 C169.012,56.224 170.572,56.86 171.34,57.796 C172.108,58.732 172.492,59.896 172.492,61.288 C172.492,63.112 171.844,64.576 170.548,65.68 C169.252,66.784 167.26,67.336 164.572,67.336 C159.726824,67.336 155.627744,65.5272803 152.274761,61.9098408 L151.972,61.576 L144.772,68.848 C146.932,71.248 149.548,73.204 152.62,74.716 C155.692,76.228 159.436,76.984 163.852,76.984 C166.972,76.984 169.756,76.588 172.204,75.796 C174.652,75.004 176.704,73.888 178.36,72.448 C180.016,71.008 181.276,69.28 182.14,67.264 C183.004,65.248 183.436,63.04 183.436,60.64 C183.436,56.272 182.188,52.9 179.692,50.524 C177.282069,48.229931 173.619229,46.6629964 168.703482,45.8231962 L168.172,45.736 L163.204,44.944 C161.092,44.608 159.568,44.056 158.632,43.288 C157.696,42.52 157.228,41.272 157.228,39.544 C157.228,38.008 157.828,36.808 159.028,35.944 C160.228,35.08 162.052,34.648 164.5,34.648 C167.092,34.648 169.24,35.092 170.944,35.98 C172.506,36.794 173.85625,37.81975 174.99475,39.05725 L175.3,39.4 L182.572,32.056 C180.508,29.752 178.036,28 175.156,26.8 C172.276,25.6 168.94,25 165.148,25 Z M224.818,25 C221.842,25 219.19,25.372 216.862,26.116 C214.534,26.86 212.566,27.904 210.958,29.248 C209.35,30.592 208.114,32.2 207.25,34.072 C206.386,35.944 205.954,38.008 205.954,40.264 C205.954,44.488 207.19,47.872 209.662,50.416 C212.054258,52.8779355 215.783873,54.4632841 220.850845,55.1720458 L221.362,55.24 L226.33,55.888 C228.682,56.224 230.242,56.86 231.01,57.796 C231.778,58.732 232.162,59.896 232.162,61.288 C232.162,63.112 231.514,64.576 230.218,65.68 C228.922,66.784 226.93,67.336 224.242,67.336 C219.396824,67.336 215.297744,65.5272803 211.944761,61.9098408 L211.642,61.576 L204.442,68.848 C206.602,71.248 209.218,73.204 212.29,74.716 C215.362,76.228 219.106,76.984 223.522,76.984 C226.642,76.984 229.426,76.588 231.874,75.796 C234.322,75.004 236.374,73.888 238.03,72.448 C239.686,71.008 240.946,69.28 241.81,67.264 C242.674,65.248 243.106,63.04 243.106,60.64 C243.106,56.272 241.858,52.9 239.362,50.524 C236.952069,48.229931 233.289229,46.6629964 228.373482,45.8231962 L227.842,45.736 L222.874,44.944 C220.762,44.608 219.238,44.056 218.302,43.288 C217.366,42.52 216.898,41.272 216.898,39.544 C216.898,38.008 217.498,36.808 218.698,35.944 C219.898,35.08 221.722,34.648 224.17,34.648 C226.762,34.648 228.91,35.092 230.614,35.98 C232.176,36.794 233.52625,37.81975 234.66475,39.05725 L234.97,39.4 L242.242,32.056 C240.178,29.752 237.706,28 234.826,26.8 C231.946,25.6 228.61,25 224.818,25 Z M58.336,25.864 L25,25.864 L25,76.12 L35.944,76.12 L35.944,55.528 L55.024,55.528 L55.024,45.88 L35.944,45.88 L35.944,35.584 L58.336,35.584 L58.336,25.864 Z M100.87,34.72 C104.182,34.72 106.762,35.8 108.61,37.96 C110.389556,40.04 111.312288,42.9879506 111.378198,46.8038519 L111.382,47.248 L111.382,54.736 C111.382,58.768 110.458,61.864 108.61,64.024 C106.762,66.184 104.182,67.264 100.87,67.264 C97.558,67.264 94.978,66.184 93.13,64.024 C91.3504444,61.944 90.4277119,58.9960494 90.3618025,55.1801481 L90.358,54.736 L90.358,47.248 C90.358,43.216 91.282,40.12 93.13,37.96 C94.978,35.8 97.558,34.72 100.87,34.72 Z" id="Combined-Shape"></path>
                <path d="M15.207,144.7235 C17.092,144.7235 18.7885,144.431 20.2965,143.846 C21.8045,143.261 23.085,142.442 24.138,141.389 C25.191,140.336 26.00025,139.0815 26.56575,137.6255 C27.13125,136.1695 27.414,134.5705 27.414,132.8285 L27.414,132.8285 L27.414,116 L20.823,116 L20.823,132.8285 C20.823,133.8295 20.69625,134.72325 20.44275,135.50975 C20.18925,136.29625 19.822,136.9625 19.341,137.5085 C18.86,138.0545 18.27175,138.47375 17.57625,138.76625 C16.88075,139.05875 16.091,139.205 15.207,139.205 C14.323,139.205 13.53325,139.05875 12.83775,138.76625 C12.14225,138.47375 11.554,138.05125 11.073,137.49875 C10.592,136.94625 10.22475,136.27675 9.97125,135.49025 C9.71775,134.70375 9.591,133.81 9.591,132.809 L9.591,132.809 L9.591,116 L3,116 L3,132.8285 C3,134.5705 3.2795,136.1695 3.8385,137.6255 C4.3975,139.0815 5.2035,140.336 6.2565,141.389 C7.3095,142.442 8.59,143.261 10.098,143.846 C11.606,144.431 13.309,144.7235 15.207,144.7235 Z M61.515,144.4115 L61.515,129.182 C61.515,128.766 61.502,128.32075 61.476,127.84625 C61.45,127.37175 61.4175,126.8875 61.3785,126.3935 L61.3785,126.3935 L74.775,143.3195 C75.1,143.7355 75.438,144.0215 75.789,144.1775 C76.14,144.3335 76.569,144.4115 77.076,144.4115 L77.076,144.4115 L80.508,144.4115 L80.508,116 L74.697,116 L74.697,131.0345 C74.697,131.4895 74.71,131.97375 74.736,132.48725 C74.762,133.00075 74.801,133.5305 74.853,134.0765 L74.853,134.0765 L61.359,117.014 C61.177,116.793 61.0145,116.6175 60.8715,116.4875 C60.7285,116.3575 60.579,116.25675 60.423,116.18525 C60.267,116.11375 60.0915,116.065 59.8965,116.039 C59.7015,116.013 59.461,116 59.175,116 L59.175,116 L55.704,116 L55.704,144.4115 L61.515,144.4115 Z M116.403,144.4115 L116.403,116 L109.773,116 L109.773,144.4115 L116.403,144.4115 Z M158.304,144.4115 L158.304,121.226 L166.299,121.226 L166.299,116 L143.718,116 L143.718,121.226 L151.713,121.226 L151.713,144.4115 L158.304,144.4115 Z M211.32,144.4115 L211.32,139.3415 L199.659,139.3415 L199.659,132.575 L208.59,132.575 L208.59,127.7 L199.659,127.7 L199.659,121.07 L211.32,121.07 L211.32,116 L193.029,116 L193.029,144.4115 L211.32,144.4115 Z M250.101,144.4115 C252.311,144.4115 254.32275,144.05725 256.13625,143.34875 C257.94975,142.64025 259.5,141.65225 260.787,140.38475 C262.074,139.11725 263.07175,137.61575 263.78025,135.88025 C264.48875,134.14475 264.843,132.25 264.843,130.196 C264.843,128.155 264.48875,126.26675 263.78025,124.53125 C263.07175,122.79575 262.074,121.2975 260.787,120.0365 C259.5,118.7755 257.94975,117.7875 256.13625,117.0725 C254.32275,116.3575 252.311,116 250.101,116 L250.101,116 L239.064,116 L239.064,144.4115 L250.101,144.4115 Z M250.101,139.3415 L245.694,139.3415 L245.694,121.07 L250.101,121.07 C251.362,121.07 252.4865,121.28125 253.4745,121.70375 C254.4625,122.12625 255.29775,122.73075 255.98025,123.51725 C256.66275,124.30375 257.186,125.2625 257.55,126.3935 C257.914,127.5245 258.096,128.792 258.096,130.196 C258.096,131.613 257.914,132.887 257.55,134.018 C257.186,135.149 256.66275,136.10775 255.98025,136.89425 C255.29775,137.68075 254.4625,138.28525 253.4745,138.70775 C252.4865,139.13025 251.362,139.3415 250.101,139.3415 L250.101,139.3415 Z" id="UNITED" fill-rule="nonzero"></path>
            </g>
        </g>
    </g>
</svg>